<svg width="469" height="534" viewBox="0 0 469 534" fill="none" xmlns="http://www.w3.org/2000/svg">
<g clip-path="url(#clip0)">
<path d="M234.04 345.44C234.04 304.86 232.89 264.07 234.21 223.51C238.38 224.24 330.97 244.59 332.49 247.51C334.01 250.43 331.59 254.01 330.68 256.28C322.19 277.48 304.6 296.37 286.68 310.12C280.77 314.6 234.04 345.74 234.04 345.44Z" fill="#3F51B5"/>
<path d="M234.34 345.44C234.34 304.86 235.49 264.07 234.17 223.51C230 224.24 137.41 244.59 135.89 247.51C134.37 250.43 136.79 254.01 137.7 256.28C146.19 277.48 163.78 296.37 181.7 310.12C187.59 314.6 234.28 345.74 234.34 345.44Z" fill="#3F51B5"/>
<path d="M151.27 147.86H90.2699C89.2699 146.93 89.6799 145.74 89.6299 144.68C88.9199 131.21 91.8899 118.28 96.6299 105.9C100.145 96.6023 104.591 87.6837 109.9 79.28C111.96 76.04 114.31 72.92 115.9 69.39C116.54 67.96 117.9 67.16 118.62 65.96C120.45 65.28 121.95 65.96 123.5 66.64C130.24 69.44 137.03 72.13 143.73 75.02C149.15 77.36 154.84 79.14 159.97 82.02C160.66 85.64 159.86 89.02 159.02 92.35C157.59 98.07 156.43 103.88 155.39 109.65C154.75 113.24 154.8 117.15 154.12 120.75C153.12 125.97 154.03 131.26 152.75 136.43C152.16 138.81 152.62 141.43 152.55 143.96C152.48 145.22 152.88 146.56 151.27 147.86Z" fill="#3F51B5"/>
<path d="M349.62 65.46C366.79 90.16 379.17 116.17 378.94 147H316.48C315.945 125.774 313.054 104.674 307.86 84.0884C308.15 82.3484 308.99 81.4084 310.01 81.0884C314.92 79.6884 319.23 76.7484 324.29 75.6784C326.123 75.2256 327.896 74.5541 329.57 73.6784C335.89 70.56 342.81 69 349.62 65.46Z" fill="#3F51B5"/>
<path d="M173.17 84.93L227.27 91.1C228.32 94.32 228.65 115.7 227.9 125.04C225.53 125.72 223.03 125.3 220.58 125.35C215.37 125.45 213.06 127.77 212.97 133.03C212.97 135.21 213.51 137.53 211.76 139.3C206.14 140.78 200.25 141 195.04 144C194.42 145.09 194.37 146.57 193.2 147.78H167.34C165.828 147.053 164.944 145.446 165.14 143.78C165.094 136.444 165.561 129.116 166.54 121.848C167.69 114.248 169.36 106.728 170.3 99.0883C170.87 94.54 172.12 90 173.17 84.93Z" fill="#3F51B5"/>
<path d="M162.66 203.86V182.01L234.59 165.59L305.88 181.97V203.98L234.59 188.04L162.66 203.86Z" fill="#3F51B5"/>
<path d="M295.21 85.31C296.86 87.38 296.33 89.92 296.81 92.13C297.64 95.87 298.66 99.64 299.18 103.38C299.79 107.87 300.92 112.31 301.18 116.85C301.25 117.97 301.7 119.03 301.82 120.06C302.6 127.06 303.82 134.06 303.75 141.12C303.75 143.12 302.4 144.76 302.75 146.54C301.613 147.514 300.157 148.033 298.66 148C291.26 147.95 283.86 148 276.42 148C275.621 147.411 274.911 146.71 274.31 145.92C272.4 142.44 269.16 141.68 265.63 141.3C262.35 140.96 259.41 139.3 256.27 139.25C255.49 136.84 255.84 134.87 255.8 132.94C255.7 127.94 253.53 125.62 248.46 125.41C245.99 125.31 243.46 125.41 240.83 125.41V91.41C242.83 90.28 245.34 90.71 247.55 90.41C251.05 89.86 254.62 88.79 258.26 89.32C260.82 89.69 263.26 88.76 265.63 88.32C271.75 87.26 277.96 87.15 284.09 86.17C287.7 85.58 291.46 84.38 295.21 85.31Z" fill="#3F51B5"/>
<path d="M151.61 160.15C152.528 160.992 152.83 162.313 152.37 163.47C151.735 164.63 150.567 165.401 149.25 165.53C148.02 165.79 147.02 166.77 145.65 166.53C144.31 168.53 143.08 170.53 143.18 172.75C142.204 173.229 141.103 173.393 140.03 173.22C134.74 173.34 131.79 176.11 131.64 181.41C131.52 185.88 131.64 190.41 131.64 194.83V226.6C128.44 227.33 125.28 228.16 122.08 228.76C118.88 229.36 116.01 231.21 113.15 232.95C111.06 231.57 110.83 229.17 109.67 227.39C107.364 223.974 105.292 220.406 103.47 216.71C100.69 211.174 98.2586 205.469 96.19 199.63C94.87 195.58 93.7 191.5 92.44 187.44C91.27 183.72 91.19 179.85 90.44 176.09C89.38 170.87 89.61 165.62 89.65 160.4C92.7699 159.67 147.04 159.5 151.61 160.15Z" fill="#3F51B5"/>
<path d="M332.36 173.15H326.21C325.21 167.9 322.14 164.78 316.73 164.7C315.99 163.14 316.46 161.76 316.33 160.43C319.55 159.59 366.82 159.25 377.91 159.97C378.91 160.85 378.45 162.04 378.5 163.1C379.24 177.32 375.9 190.78 370.7 203.85C367.319 212.333 363.165 220.488 358.29 228.21C357.35 229.7 357 231.62 355.14 232.84C352.66 229.84 349.09 229.3 345.51 228.62C342.69 228.08 339.93 227.23 336.75 226.42C336.19 222.32 336.56 218.15 336.49 214.02C336.42 209.89 336.49 205.91 336.49 201.86V176.86L332.36 173.15Z" fill="#3F51B5"/>
<path d="M177.84 72C177.31 68 179.58 64.91 180.76 61.58C183.021 55.4807 185.825 49.5971 189.14 44C193.8 35.86 198.88 28 205.71 21.37C211.062 16.3495 217.343 12.4227 224.2 9.81002C225.401 9.29986 226.758 9.29986 227.96 9.81002V76.81C222.04 78.51 187.56 75.25 177.84 72Z" fill="#3F51B5"/>
<path d="M240.96 9C247.757 10.7455 254.068 14.0109 259.42 18.55C265.284 23.4171 270.373 29.1496 274.51 35.55C278.147 41.225 281.404 47.1346 284.26 53.24C286.81 58.53 288.75 64.11 290.88 69.59C291.065 70.5042 291.129 71.439 291.07 72.3699C274.45 74.9699 258.07 78.16 241.33 77.4399C240.51 74.12 240.22 18.21 240.96 9Z" fill="#3F51B5"/>
<path d="M233.89 217.77L234.11 193.23L312.69 209.83V192.76L316.98 193.49L316.99 235.75L233.89 217.77Z" fill="#3F51B5"/>
<path d="M234.14 217.77L233.91 193.23L155.33 209.83V192.76L151.04 193.49L151.03 235.75L234.14 217.77Z" fill="#3F51B5"/>
<path d="M193.8 15.1C191.48 19.1 188.5 22.55 185.8 26.0999C181.441 31.9454 177.795 38.2903 174.94 45C171.94 51.79 169.46 58.79 166.09 65.41C165.53 66.5 165.17 67.68 164.71 68.83C163.512 69.2474 162.2 69.1938 161.04 68.68C157.26 67.03 153.31 65.85 149.53 64.17C145.15 62.17 140.53 60.73 136.1 58.95C133.29 57.84 130.54 56.57 127.77 55.38C133.48 42.9999 182.52 13 193.8 15.1Z" fill="#3F51B5"/>
<path d="M340.34 55.78C328.43 60.22 316.53 64.66 304.5 68.44C302.5 66.74 301.84 64.53 300.99 62.54C299.66 59.38 298.33 56.21 297.1 53.02C294.788 46.7117 291.934 40.6156 288.57 34.7999C285.8 30.2099 282.43 25.9799 279.32 21.6099C277.72 19.3599 276.1 17.1399 274.42 14.8099C287.44 14.27 335.57 42.51 340.34 55.78Z" fill="#3F51B5"/>
<path d="M165.71 310.32C163.59 310.58 161.25 309.75 159.24 309.12C157.331 308.548 155.452 307.88 153.61 307.12C133.27 298.54 112.31 284.75 89.27 290.66C70.63 295.44 54.27 307.96 37.14 316.23C31.4683 318.909 25.3808 320.6 19.14 321.23C14.06 321.78 7.14 322.51 2.88 319.05C2.26 318.55 1.64 318.05 1 317.57C2.48 318.64 6.83 318.4 8.63 318.5C11.113 318.645 13.6041 318.555 16.07 318.23C21.0648 317.381 25.8984 315.765 30.4 313.44C38.78 309.44 46.04 303.63 53.7 298.44C61.63 293.12 69.5 287.73 78.24 283.76C83.8955 281.228 89.8932 279.543 96.04 278.76C120.12 275.52 142.17 290.61 159.89 305.09C161.85 306.73 164.43 308.15 165.71 310.32Z" fill="#3F51B5"/>
<path d="M82.5899 304.26C88.0799 299.26 94.3799 297.26 101.59 297.33C107.944 297.415 114.255 298.387 120.34 300.22C140.86 306.22 161.09 315.96 182.6 318.36C185.05 318.63 187.09 320.3 188.95 321.77C189.37 322.1 192.95 325.19 193.01 325.15C189.763 327.071 186.267 328.535 182.62 329.5C179.333 330.182 175.974 330.457 172.62 330.32C169.11 330.382 165.599 330.178 162.12 329.71C158.726 329.1 155.383 328.235 152.12 327.12C137.12 322.28 124.22 313.12 110.12 306.41C103.495 303.194 96.1094 301.872 88.78 302.59C86.7399 302.78 84.6799 303.68 82.5899 304.26Z" fill="#3F51B5"/>
<path d="M159.2 297.23C157.99 297.9 156.02 296.09 154.45 295.16C152.63 294.08 150.88 292.87 149.13 291.68C146.44 289.86 143.75 288.05 141.02 286.3C135.63 282.765 130.011 279.591 124.2 276.8C117.48 273.65 110.4 271.12 102.97 270.45C99.5199 270.14 96.0799 269.79 92.6199 269.82C86.0799 269.82 79.8399 271.4 73.6199 273.4C70.6799 274.4 67.8999 275.87 64.7899 276.4C66.3199 274 68.9699 273.29 71.1499 272.13C78.6665 268.071 86.8371 265.364 95.2899 264.13C103.271 263.139 111.37 263.754 119.11 265.94C122.951 266.966 126.731 268.211 130.43 269.67C133.27 270.77 136.36 271.47 138.92 273.19C141.13 274.66 142.55 276.95 144.07 279.05C145.93 281.61 147.95 284.05 150 286.43C152.58 289.43 153.69 290.13 156.28 293.29C157.61 294.92 158.62 296.29 159.28 297.19L159.2 297.23Z" fill="#3F51B5"/>
<path d="M304.37 310.32C306.49 310.58 308.83 309.75 310.84 309.12C312.749 308.548 314.628 307.88 316.47 307.12C336.81 298.54 357.77 284.75 380.81 290.66C399.45 295.44 415.81 307.96 432.94 316.23C438.612 318.909 444.699 320.6 450.94 321.23C456.02 321.78 462.94 322.51 467.2 319.05C467.82 318.55 468.44 318.05 469.08 317.57C467.6 318.64 463.25 318.4 461.45 318.5C458.967 318.645 456.476 318.555 454.01 318.23C449.015 317.381 444.181 315.765 439.68 313.44C431.3 309.44 424.04 303.63 416.38 298.44C408.45 293.12 400.58 287.73 391.84 283.76C386.184 281.228 380.187 279.543 374.04 278.76C349.96 275.52 327.91 290.61 310.19 305.09C308.23 306.73 305.65 308.15 304.37 310.32Z" fill="#3F51B5"/>
<path d="M387.49 304.26C382 299.26 375.7 297.26 368.49 297.33C362.136 297.415 355.825 298.387 349.74 300.22C329.22 306.22 308.99 315.96 287.48 318.36C285.03 318.63 282.99 320.3 281.13 321.77C280.71 322.1 277.13 325.19 277.07 325.15C283.152 328.987 290.294 330.797 297.47 330.32C300.98 330.382 304.49 330.178 307.97 329.71C311.347 329.098 314.673 328.232 317.92 327.12C332.92 322.28 345.82 313.12 359.92 306.41C366.545 303.194 373.93 301.872 381.26 302.59C383.34 302.78 385.4 303.68 387.49 304.26Z" fill="#3F51B5"/>
<path d="M310.88 297.23C312.09 297.9 314.06 296.09 315.63 295.16C317.45 294.08 319.2 292.87 320.95 291.68C323.64 289.86 326.33 288.05 329.06 286.3C334.45 282.765 340.069 279.591 345.88 276.8C352.6 273.65 359.68 271.12 367.11 270.45C370.56 270.14 374 269.79 377.46 269.82C384 269.82 390.24 271.4 396.46 273.4C399.4 274.4 402.18 275.87 405.29 276.4C403.76 274 401.11 273.29 398.93 272.13C391.413 268.071 383.243 265.364 374.79 264.13C366.809 263.138 358.71 263.754 350.97 265.94C347.129 266.966 343.349 268.211 339.65 269.67C336.81 270.77 333.72 271.47 331.16 273.19C328.95 274.66 327.53 276.95 326.01 279.05C324.15 281.61 322.13 284.05 320.08 286.43C317.5 289.43 316.39 290.13 313.8 293.29C312.47 294.92 311.46 296.29 310.8 297.19L310.88 297.23Z" fill="#3F51B5"/>
<path d="M236.42 144.82C237.68 145.02 237.31 146.01 237.32 146.82C237.32 149.31 237.32 151.82 237.32 154.22L255.75 158.53C255.84 160.88 256.14 163.18 255.5 165.53C248.69 163.96 242.06 162.33 235.37 160.93C232.63 160.35 230.02 161.62 227.37 162.19C222.56 163.24 217.73 164.19 212.91 165.13C211.72 162.93 212.48 161.03 212.16 159.13C218.3 156.46 224.73 156.31 230.77 154.29C232.5 152.19 230.63 149.4 231.94 147.18C232.76 149.28 231.73 151.59 232.62 153.78C233.876 154.016 235.168 153.982 236.41 153.68L236.42 144.82Z" fill="#3F51B5"/>
<path d="M236.42 144.82V153.66C235.178 153.962 233.886 153.996 232.63 153.76C231.74 151.57 232.77 149.26 231.95 147.16C232.1 146.4 232.25 145.64 232.39 144.88C233.71 144.546 235.09 144.525 236.42 144.82Z" fill="#3F51B5"/>
<path d="M80.3486 443.481H44.5479L37.0576 465H20.3633L55.2754 372.578H69.6846L104.66 465H87.9023L80.3486 443.481ZM49.0547 430.532H75.8418L62.4482 392.192L49.0547 430.532ZM130.114 465H114.689V367.5H130.114V465ZM188.005 465C187.328 463.688 186.735 461.551 186.228 458.589C181.319 463.709 175.31 466.27 168.2 466.27C161.302 466.27 155.674 464.302 151.315 460.366C146.957 456.431 144.777 451.564 144.777 445.767C144.777 438.446 147.486 432.839 152.902 428.945C158.361 425.01 166.148 423.042 176.262 423.042H185.72V418.535C185.72 414.98 184.725 412.145 182.736 410.029C180.747 407.871 177.722 406.792 173.659 406.792C170.147 406.792 167.269 407.681 165.026 409.458C162.784 411.193 161.662 413.415 161.662 416.123H146.237C146.237 412.357 147.486 408.844 149.982 405.586C152.479 402.285 155.865 399.704 160.139 397.842C164.455 395.98 169.258 395.049 174.548 395.049C182.588 395.049 188.999 397.08 193.781 401.143C198.563 405.163 201.018 410.833 201.145 418.154V449.131C201.145 455.309 202.012 460.239 203.747 463.921V465H188.005ZM171.057 453.892C174.104 453.892 176.96 453.151 179.626 451.67C182.334 450.189 184.366 448.2 185.72 445.703V432.754H177.404C171.691 432.754 167.396 433.748 164.519 435.737C161.641 437.726 160.202 440.54 160.202 444.18C160.202 447.142 161.175 449.512 163.122 451.289C165.111 453.024 167.756 453.892 171.057 453.892ZM214.411 430.151C214.411 419.572 216.866 411.087 221.774 404.697C226.683 398.265 233.264 395.049 241.516 395.049C248.794 395.049 254.676 397.588 259.162 402.666V367.5H274.587V465H260.622L259.86 457.891C255.248 463.477 249.09 466.27 241.389 466.27C233.348 466.27 226.831 463.032 221.838 456.558C216.887 450.083 214.411 441.281 214.411 430.151ZM229.836 431.484C229.836 438.467 231.169 443.926 233.835 447.861C236.543 451.755 240.373 453.701 245.324 453.701C251.63 453.701 256.242 450.887 259.162 445.259V415.933C256.327 410.431 251.757 407.681 245.451 407.681C240.458 407.681 236.607 409.67 233.898 413.647C231.19 417.583 229.836 423.529 229.836 431.484ZM287.79 430.151C287.79 419.572 290.244 411.087 295.153 404.697C300.062 398.265 306.643 395.049 314.895 395.049C322.173 395.049 328.055 397.588 332.541 402.666V367.5H347.966V465H334.001L333.239 457.891C328.627 463.477 322.469 466.27 314.768 466.27C306.727 466.27 300.21 463.032 295.217 456.558C290.266 450.083 287.79 441.281 287.79 430.151ZM303.215 431.484C303.215 438.467 304.548 443.926 307.214 447.861C309.922 451.755 313.752 453.701 318.703 453.701C325.008 453.701 329.621 450.887 332.541 445.259V415.933C329.706 410.431 325.135 407.681 318.83 407.681C313.837 407.681 309.986 409.67 307.277 413.647C304.569 417.583 303.215 423.529 303.215 431.484ZM380.466 465H365.041V396.318H380.466V465ZM364.089 378.481C364.089 376.112 364.829 374.144 366.311 372.578C367.834 371.012 369.992 370.229 372.785 370.229C375.578 370.229 377.736 371.012 379.26 372.578C380.783 374.144 381.545 376.112 381.545 378.481C381.545 380.809 380.783 382.756 379.26 384.321C377.736 385.845 375.578 386.606 372.785 386.606C369.992 386.606 367.834 385.845 366.311 384.321C364.829 382.756 364.089 380.809 364.089 378.481ZM411.633 396.318L412.077 404.253C417.155 398.117 423.82 395.049 432.072 395.049C446.376 395.049 453.654 403.237 453.908 419.614V465H438.483V420.503C438.483 416.144 437.531 412.928 435.627 410.854C433.765 408.739 430.697 407.681 426.423 407.681C420.202 407.681 415.568 410.495 412.521 416.123V465H397.097V396.318H411.633Z" fill="#3F51B5"/>
</g>
<path d="M111.282 512.845C111.282 511.282 110.729 510.078 109.622 509.231C108.532 508.385 106.554 507.531 103.689 506.668C100.825 505.805 98.5462 504.845 96.8535 503.787C93.6146 501.753 91.9951 499.1 91.9951 495.828C91.9951 492.964 93.1589 490.604 95.4863 488.748C97.8301 486.893 100.866 485.965 104.593 485.965C107.067 485.965 109.272 486.421 111.209 487.332C113.146 488.243 114.668 489.546 115.774 491.238C116.881 492.915 117.435 494.778 117.435 496.829H111.282C111.282 494.974 110.696 493.525 109.524 492.483C108.369 491.425 106.709 490.896 104.544 490.896C102.526 490.896 100.955 491.328 99.832 492.19C98.7253 493.053 98.1719 494.257 98.1719 495.804C98.1719 497.106 98.7741 498.196 99.9785 499.075C101.183 499.938 103.169 500.784 105.936 501.614C108.702 502.428 110.924 503.364 112.601 504.422C114.277 505.464 115.506 506.668 116.287 508.035C117.068 509.386 117.459 510.973 117.459 512.796C117.459 515.758 116.32 518.118 114.041 519.876C111.779 521.618 108.702 522.488 104.812 522.488C102.241 522.488 99.8727 522.016 97.708 521.072C95.5596 520.112 93.8831 518.794 92.6787 517.117C91.4906 515.441 90.8965 513.488 90.8965 511.258H97.0732C97.0732 513.276 97.7406 514.839 99.0752 515.945C100.41 517.052 102.322 517.605 104.812 517.605C106.961 517.605 108.572 517.174 109.646 516.312C110.737 515.433 111.282 514.277 111.282 512.845ZM128.152 498.465C130.089 496.219 132.539 495.096 135.501 495.096C141.132 495.096 143.989 498.31 144.07 504.739V522H138.138V504.959C138.138 503.136 137.739 501.85 136.941 501.102C136.16 500.337 135.005 499.954 133.475 499.954C131.098 499.954 129.324 501.012 128.152 503.128V522H122.22V484.5H128.152V498.465ZM156.399 522H150.467V495.584H156.399V522ZM150.101 488.724C150.101 487.812 150.385 487.055 150.955 486.453C151.541 485.851 152.371 485.55 153.445 485.55C154.52 485.55 155.35 485.851 155.936 486.453C156.521 487.055 156.814 487.812 156.814 488.724C156.814 489.619 156.521 490.368 155.936 490.97C155.35 491.556 154.52 491.849 153.445 491.849C152.371 491.849 151.541 491.556 150.955 490.97C150.385 490.368 150.101 489.619 150.101 488.724ZM186.014 509.061C186.014 513.146 185.086 516.409 183.23 518.851C181.375 521.276 178.885 522.488 175.76 522.488C172.863 522.488 170.543 521.536 168.802 519.632V532.156H162.869V495.584H168.338L168.582 498.27C170.324 496.154 172.692 495.096 175.687 495.096C178.909 495.096 181.432 496.3 183.255 498.709C185.094 501.102 186.014 504.43 186.014 508.694V509.061ZM180.105 508.548C180.105 505.911 179.576 503.82 178.519 502.273C177.477 500.727 175.979 499.954 174.026 499.954C171.601 499.954 169.86 500.955 168.802 502.957V514.676C169.876 516.727 171.634 517.752 174.075 517.752C175.963 517.752 177.436 516.995 178.494 515.481C179.568 513.951 180.105 511.64 180.105 508.548ZM214.188 509.061C214.188 513.146 213.26 516.409 211.404 518.851C209.549 521.276 207.059 522.488 203.934 522.488C201.036 522.488 198.717 521.536 196.976 519.632V532.156H191.043V495.584H196.512L196.756 498.27C198.497 496.154 200.866 495.096 203.86 495.096C207.083 495.096 209.606 496.3 211.429 498.709C213.268 501.102 214.188 504.43 214.188 508.694V509.061ZM208.279 508.548C208.279 505.911 207.75 503.82 206.692 502.273C205.651 500.727 204.153 499.954 202.2 499.954C199.775 499.954 198.034 500.955 196.976 502.957V514.676C198.05 516.727 199.808 517.752 202.249 517.752C204.137 517.752 205.61 516.995 206.668 515.481C207.742 513.951 208.279 511.64 208.279 508.548ZM225.54 522H219.607V495.584H225.54V522ZM219.241 488.724C219.241 487.812 219.526 487.055 220.096 486.453C220.682 485.851 221.512 485.55 222.586 485.55C223.66 485.55 224.49 485.851 225.076 486.453C225.662 487.055 225.955 487.812 225.955 488.724C225.955 489.619 225.662 490.368 225.076 490.97C224.49 491.556 223.66 491.849 222.586 491.849C221.512 491.849 220.682 491.556 220.096 490.97C219.526 490.368 219.241 489.619 219.241 488.724ZM237.527 495.584L237.698 498.636C239.651 496.276 242.215 495.096 245.389 495.096C250.89 495.096 253.689 498.245 253.787 504.544V522H247.854V504.886C247.854 503.209 247.488 501.972 246.756 501.175C246.04 500.361 244.86 499.954 243.216 499.954C240.823 499.954 239.041 501.036 237.869 503.201V522H231.937V495.584H237.527ZM258.816 508.597C258.816 504.495 259.777 501.224 261.697 498.782C263.634 496.325 266.198 495.096 269.388 495.096C272.399 495.096 274.767 496.146 276.492 498.245L276.761 495.584H282.107V521.194C282.107 524.661 281.025 527.396 278.86 529.397C276.712 531.399 273.807 532.4 270.145 532.4C268.208 532.4 266.312 531.993 264.456 531.18C262.617 530.382 261.217 529.332 260.257 528.03L263.064 524.466C264.887 526.631 267.133 527.713 269.803 527.713C271.772 527.713 273.326 527.176 274.466 526.102C275.605 525.044 276.175 523.481 276.175 521.414V519.632C274.466 521.536 272.187 522.488 269.339 522.488C266.246 522.488 263.715 521.259 261.746 518.802C259.793 516.344 258.816 512.942 258.816 508.597ZM264.725 509.109C264.725 511.762 265.262 513.854 266.336 515.384C267.426 516.897 268.932 517.654 270.853 517.654C273.245 517.654 275.019 516.629 276.175 514.578V502.957C275.052 500.955 273.294 499.954 270.901 499.954C268.948 499.954 267.426 500.727 266.336 502.273C265.262 503.82 264.725 506.098 264.725 509.109ZM307.767 522H301.614V486.453H307.767V522ZM343.558 522H337.381L321.536 496.78V522H315.359V486.453H321.536L337.43 511.771V486.453H343.558V522ZM377.981 510.428C377.623 514.22 376.224 517.182 373.782 519.314C371.341 521.43 368.094 522.488 364.041 522.488C361.209 522.488 358.711 521.821 356.546 520.486C354.397 519.135 352.737 517.223 351.565 514.749C350.394 512.275 349.783 509.402 349.734 506.131V502.811C349.734 499.458 350.328 496.504 351.517 493.948C352.705 491.393 354.406 489.424 356.619 488.04C358.849 486.657 361.421 485.965 364.334 485.965C368.257 485.965 371.414 487.031 373.807 489.163C376.199 491.295 377.591 494.306 377.981 498.196H371.829C371.536 495.641 370.787 493.802 369.583 492.679C368.395 491.539 366.645 490.97 364.334 490.97C361.648 490.97 359.581 491.954 358.133 493.924C356.701 495.877 355.968 498.75 355.936 502.542V505.691C355.936 509.533 356.619 512.462 357.986 514.48C359.37 516.499 361.388 517.508 364.041 517.508C366.466 517.508 368.289 516.963 369.51 515.872C370.73 514.782 371.504 512.967 371.829 510.428H377.981Z" fill="#3F51B5"/>
<defs>
<clipPath id="clip0">
<rect width="469" height="505" fill="white"/>
</clipPath>
</defs>
</svg>
